<svg xmlns="http://www.w3.org/2000/svg" xmlns:xlink="http://www.w3.org/1999/xlink" width="480" height="480" viewBox="0 0 480 480">
  <defs>
    <clipPath id="clip-path">
      <path id="path3828" d="M-352.943,243.39c0,132.549-107.452,240-240,240s-240-107.452-240-240,107.452-240,240-240,240,107.452,240,240Z" transform="translate(849.941 14.612)" fill="#4086cd"/>
    </clipPath>
    <clipPath id="clip-path-2">
      <path id="path3856-5-6-5-7" d="M723.35-709.036c0-351.552-145.735-636.541-325.508-636.541S72.335-1060.588,72.335-709.036,218.069-72.495,397.842-72.495,723.35-357.484,723.35-709.036Z" transform="translate(771.56 -665.918) rotate(180)" fill="#9adbb6"/>
    </clipPath>
    <clipPath id="clip-logo">
      <rect width="480" height="480"/>
    </clipPath>
  </defs>
  <g id="logo" clip-path="url(#clip-logo)">
    <g id="layer1" transform="translate(-16.229 -556.363)">
      <path id="path3121" d="M-352.943,243.39c0,132.549-107.452,240-240,240s-240-107.452-240-240,107.452-240,240-240,240,107.452,240,240Z" transform="translate(848.941 552.974)" fill="#fff"/>
      <g id="g3508" transform="translate(0 540.362)" opacity="0.15" clip-path="url(#clip-path)">
        <path id="path3127" d="M248.344,139.156a5.117,5.117,0,0,0-4.844,3.469c-4.852.319-9.635.793-14.312,1.438a5.094,5.094,0,0,0-5.938.937,174.111,174.111,0,0,0-45.187,13.906,5.116,5.116,0,0,0-8.532,1.813c-19.243,4.367-30.9,9.913-30.531,15.656a4.9,4.9,0,0,0,.938,2.438,28.841,28.841,0,0,0,.312,6.937c-14.837,15.941-22.645,35.049-20.75,55.219L106.406,241a8.451,8.451,0,0,0-.062,4.188c-12.628,3.645-20.657,9.113-20.657,15.25,0,6.621,9.366,12.514,23.751,16.125a35.661,35.661,0,0,0,4.937,5.312l-8.5-.031a20.006,20.006,0,0,0,.656,7.656c.045.161.108.309.157.469-1.917,1.675-2.5,3.388-1.563,5.156h3.813a41.731,41.731,0,0,0,9.968,11.25c10.666,38.99,76.48,68.226,150.094,65.906,63.754-2.009,113.078-27.047,122.688-59.187,12.659-8.771,18.54-19.01,15.5-29.813l-8.063-.031a25.357,25.357,0,0,0,7.188-10.625c11.867-4.114,20-12.448,20-22.094,0-12.729-14.142-23.21-32.375-24.656-2.4-16.253-10.9-31.175-23.844-43.75a31.882,31.882,0,0,0-.719-10.187l.531-1.5-.375-.032c-.573-6.686-17.317-12.268-43.156-15.562a171.862,171.862,0,0,0-17.187-5.719,5.079,5.079,0,0,0-7.219-1.844c-3.677-.86-7.416-1.631-11.219-2.281a5.1,5.1,0,0,0-9.687-1.406c-3.386-.4-6.823-.7-10.282-.938a5.132,5.132,0,0,0-9.562-.437c-2.718-.055-5.438-.054-8.188,0A5.112,5.112,0,0,0,248.344,139.156Z"/>
      </g>
      <g id="g4558" transform="translate(-3.252 -54.541)">
        <g id="g3078" transform="translate(-44.347 1340.864) rotate(180)">
          <path id="path3074" d="M-440.339,451.671c-7.525-40.751,47.853-75.724,123.691-78.114s143.418,28.709,150.943,69.46a39.9,39.9,0,0,1,.554,10.395" fill="#f38e2b" stroke="#f38e2b" stroke-width="17.698"/>
          <path id="path3076" d="M-152.733,450.709c6.334,11.925-55.842,22.33-138.873,23.239S-447.081,465.928-453.415,454a3.3,3.3,0,0,1-.122-3.046" fill="#f38e2b"/>
        </g>
        <g id="g3865" transform="translate(563.22 27.881)">
          <path id="path3867" d="M-440.339,852.216c-5.785-59.106,51-110.677,126.842-115.186s142.007,39.751,147.791,98.857a83.722,83.722,0,0,1,.111,15.1" fill="#601f05" stroke="#601f05" stroke-width="24.31"/>
          <path id="path3869" d="M-152.733,850.4c8.447,30.009-52.015,55.727-135.046,57.443s-157.188-21.22-165.636-51.229a19.993,19.993,0,0,1-.659-7.654" fill="#601f05"/>
        </g>
        <g id="g3859" transform="translate(562.505 7.881)">
          <path id="path3861" d="M-440.339,852.216c-5.785-59.106,51-110.677,126.842-115.186s142.007,39.751,147.791,98.857a83.722,83.722,0,0,1,.111,15.1" fill="#e74c3c" stroke="#e74c3c" stroke-width="24.31"/>
          <path id="path3863" d="M-152.733,850.4c7.555,26.839-53.631,49.987-136.661,51.7s-156.465-18.65-164.02-45.489a15.972,15.972,0,0,1-.432-6.849" fill="#e74c3c"/>
        </g>
        <g id="g6766">
          <path id="path10169-3-58-7" d="M145.567,776.612l97.527-18.864,130.132,7.677-26.752,77.406-71.218,86.318L204.48,870.607Z" fill="#ffca55"/>
          <path id="path10195-6-1-3" d="M258.944,790.035c-63.668,1.622-115.9-6.74-116.654-18.678S192.531,748.426,256.2,746.8s115.9,6.74,116.654,18.678S322.612,788.413,258.944,790.035Z" fill="#ffca55"/>
          <path id="path10195-7-82-3-9" d="M291.546,833.7c27.537-46.639,61.413-79.725,75.663-73.9s3.478,48.358-24.059,95-61.413,79.724-75.663,73.9S264.008,880.341,291.546,833.7Z" fill="#ffca55"/>
          <path id="path10195-7-3-8-59-4" d="M237.706,835.073c-35.159-45.042-75.239-76.242-89.522-69.689s2.64,48.38,37.8,93.421,75.239,76.243,89.522,69.689S272.865,880.115,237.706,835.073Z" fill="#ffca55"/>
        </g>
        <g id="g3993" transform="translate(-123.73 -481)">
          <g id="g3974" transform="translate(26.35 -964.508)">
            <g id="g5497-3-1-4-8-6" transform="translate(600.206 714.528) rotate(180)">
              <g id="Group_10" data-name="Group 10" transform="translate(709.575 -1990.077) rotate(180)" clip-path="url(#clip-path-2)">
                <path id="path5477-7-1-6-9-3" d="M555.164-398.707c0-53.591-28.355-97.035-63.332-97.035S428.5-452.3,428.5-398.707q0,.934.012,1.868l63.32-1.868Z" fill="#46b24c"/>
              </g>
              <path id="path5477-5-4-7-2-5-8" d="M343.48-246.688c0-33.158-17.543-60.037-39.183-60.037s-39.183,26.88-39.183,60.037q0,.578.007,1.156l39.176-1.156Z" transform="translate(453.864 -1838.767) rotate(180)" fill="#46b24c"/>
            </g>
            <g id="g3969" transform="translate(17.553 -30.034)">
              <path id="path3967" d="M292.49,295.609c0,39.733-14.939,71.943-33.367,71.943s-33.367-32.21-33.367-71.943q0-.693.006-1.385l33.361,1.385Z" transform="translate(560.392 2632.355) rotate(180)" fill="#46b24c"/>
            </g>
          </g>
          <path id="path3983" d="M-141.16-32.294c0,10.976-25.7,19.873-57.405,19.873s-57.405-8.9-57.405-19.873,25.7-19.873,57.405-19.873,57.405,8.9,57.405,19.873Z" transform="translate(468.652 1368.759)" fill="#46b24c"/>
          <path id="path3985" d="M-141.16-32.294c0,10.976-25.7,19.873-57.405,19.873s-57.405-8.9-57.405-19.873,25.7-19.873,57.405-19.873,57.405,8.9,57.405,19.873Z" transform="translate(547.702 1376.212)" fill="#46b24c"/>
          <path id="path3987" d="M-141.16-32.294c0,10.976-25.7,19.873-57.405,19.873s-57.405-8.9-57.405-19.873,25.7-19.873,57.405-19.873,57.405,8.9,57.405,19.873Z" transform="translate(645.573 1368.759)" fill="#46b24c"/>
          <path id="path3991" d="M800.329-92.27c0,13.72-16.432,24.842-36.7,24.842s-36.7-11.122-36.7-24.842,16.432-24.842,36.7-24.842S800.329-105.99,800.329-92.27Z" transform="translate(-246.985 1418.798)" fill="#46b24c"/>
        </g>
        <g id="g3871" transform="translate(563.22 99.274)">
          <path id="path3873" d="M-440.339,737.913c-5.785-51.179,51-95.832,126.842-99.737s142.007,34.419,147.791,85.6a62.814,62.814,0,0,1,.111,13.071" fill="#f38e2b" stroke="#f38e2b" stroke-width="22.621"/>
          <path id="path3875" d="M-152.733,736.343c6.334,19.482-55.842,36.481-138.873,37.967s-155.475-13.1-161.809-32.586a8.484,8.484,0,0,1-.122-4.976" fill="#f38e2b"/>
        </g>
        <path id="path4420" d="M71.771,16.843a5.127,5.127,0,1,1-5.127-5.127A5.127,5.127,0,0,1,71.771,16.843Z" transform="translate(147.396 731.19)" fill="#fde098"/>
        <path id="path4422" d="M71.771,16.843a5.127,5.127,0,1,1-5.127-5.127A5.127,5.127,0,0,1,71.771,16.843Z" transform="translate(163.508 726.795)" fill="#fde098"/>
        <path id="path4424" d="M71.771,16.843a5.127,5.127,0,1,1-5.127-5.127A5.127,5.127,0,0,1,71.771,16.843Z" transform="translate(184.977 722.437)" fill="#fde098"/>
        <path id="path4426" d="M71.771,16.843a5.127,5.127,0,1,1-5.127-5.127A5.127,5.127,0,0,1,71.771,16.843Z" transform="translate(202.553 722.437)" fill="#fde098"/>
        <path id="path4428" d="M71.771,16.843a5.127,5.127,0,1,1-5.127-5.127A5.127,5.127,0,0,1,71.771,16.843Z" transform="translate(222.327 723.902)" fill="#fde098"/>
        <path id="path4430" d="M71.771,16.843a5.127,5.127,0,1,1-5.127-5.127A5.127,5.127,0,0,1,71.771,16.843Z" transform="translate(241.369 729.761)" fill="#fde098"/>
        <path id="path4432" d="M71.771,16.843a5.127,5.127,0,1,1-5.127-5.127A5.127,5.127,0,0,1,71.771,16.843Z" transform="translate(259.678 737.817)" fill="#fde098"/>
        <path id="path4434" d="M71.771,16.843a5.127,5.127,0,1,1-5.127-5.127A5.127,5.127,0,0,1,71.771,16.843Z" transform="translate(130.551 737.781)" fill="#fde098"/>
        <path id="path4436" d="M71.771,16.843a5.127,5.127,0,1,1-5.127-5.127A5.127,5.127,0,0,1,71.771,16.843Z" transform="translate(172.635 743.888)" fill="#fde098"/>
        <path id="path4438" d="M71.771,16.843a5.127,5.127,0,1,1-5.127-5.127A5.127,5.127,0,0,1,71.771,16.843Z" transform="translate(188.747 740.227)" fill="#fde098"/>
        <path id="path4440" d="M71.771,16.843a5.127,5.127,0,1,1-5.127-5.127A5.127,5.127,0,0,1,71.771,16.843Z" transform="translate(207.056 740.227)" fill="#fde098"/>
        <path id="path4442" d="M71.771,16.843a5.127,5.127,0,1,1-5.127-5.127A5.127,5.127,0,0,1,71.771,16.843Z" transform="translate(156.523 748.283)" fill="#fde098"/>
        <path id="path4444" d="M71.771,16.843a5.127,5.127,0,1,1-5.127-5.127A5.127,5.127,0,0,1,71.771,16.843Z" transform="translate(120.637 754.874)" fill="#fde098"/>
        <path id="path4446" d="M71.771,16.843a5.127,5.127,0,1,1-5.127-5.127A5.127,5.127,0,0,1,71.771,16.843Z" transform="translate(222.436 743.156)" fill="#fde098"/>
        <path id="path4448" d="M71.771,16.843a5.127,5.127,0,1,1-5.127-5.127A5.127,5.127,0,0,1,71.771,16.843Z" transform="translate(242.209 749.015)" fill="#fde098"/>
        <path id="path4450" d="M71.771,16.843a5.127,5.127,0,1,1-5.127-5.127A5.127,5.127,0,0,1,71.771,16.843Z" transform="translate(139.679 754.874)" fill="#fde098"/>
        <path id="path4452" d="M71.771,16.843a5.127,5.127,0,1,1-5.127-5.127A5.127,5.127,0,0,1,71.771,16.843Z" transform="translate(185.085 756.339)" fill="#fde098"/>
        <path id="path4454" d="M71.771,16.843a5.127,5.127,0,1,1-5.127-5.127A5.127,5.127,0,0,1,71.771,16.843Z" transform="translate(206.324 754.874)" fill="#fde098"/>
        <path id="path4456" d="M71.771,16.843a5.127,5.127,0,1,1-5.127-5.127A5.127,5.127,0,0,1,71.771,16.843Z" transform="translate(168.241 761.465)" fill="#fde098"/>
        <path id="path4458" d="M71.771,16.843a5.127,5.127,0,1,1-5.127-5.127A5.127,5.127,0,0,1,71.771,16.843Z" transform="translate(133.82 770.986)" fill="#fde098"/>
        <path id="path4460" d="M71.771,16.843a5.127,5.127,0,1,1-5.127-5.127A5.127,5.127,0,0,1,71.771,16.843Z" transform="translate(153.594 770.986)" fill="#fde098"/>
        <path id="path4462" d="M71.771,16.843a5.127,5.127,0,1,1-5.127-5.127A5.127,5.127,0,0,1,71.771,16.843Z" transform="translate(178.494 776.845)" fill="#fde098"/>
        <path id="path4464" d="M71.771,16.843a5.127,5.127,0,1,1-5.127-5.127A5.127,5.127,0,0,1,71.771,16.843Z" transform="translate(196.071 768.789)" fill="#fde098"/>
        <path id="path4466" d="M71.771,16.843a5.127,5.127,0,1,1-5.127-5.127A5.127,5.127,0,0,1,71.771,16.843Z" transform="translate(221.703 762.197)" fill="#fde098"/>
        <path id="path4468" d="M71.771,16.843a5.127,5.127,0,1,1-5.127-5.127A5.127,5.127,0,0,1,71.771,16.843Z" transform="translate(245.139 766.592)" fill="#fde098"/>
        <path id="path4470" d="M71.771,16.843a5.127,5.127,0,1,1-5.127-5.127A5.127,5.127,0,0,1,71.771,16.843Z" transform="translate(261.251 758.536)" fill="#fde098"/>
        <path id="path4472" d="M71.771,16.843a5.127,5.127,0,1,1-5.127-5.127A5.127,5.127,0,0,1,71.771,16.843Z" transform="translate(212.183 775.38)" fill="#fde098"/>
        <path id="path4530" d="M71.771,16.843a5.127,5.127,0,1,1-5.127-5.127A5.127,5.127,0,0,1,71.771,16.843Z" transform="translate(110.995 740.588)" fill="#fde098"/>
        <path id="path4532" d="M71.771,16.843a5.127,5.127,0,1,1-5.127-5.127A5.127,5.127,0,0,1,71.771,16.843Z" transform="translate(103.495 757.017)" fill="#fde098"/>
        <path id="path4534" d="M71.771,16.843a5.127,5.127,0,1,1-5.127-5.127A5.127,5.127,0,0,1,71.771,16.843Z" transform="translate(115.995 771.66)" fill="#fde098"/>
        <path id="path4536" d="M71.771,16.843a5.127,5.127,0,1,1-5.127-5.127A5.127,5.127,0,0,1,71.771,16.843Z" transform="translate(233.137 780.588)" fill="#fde098"/>
        <path id="path4538" d="M71.771,16.843a5.127,5.127,0,1,1-5.127-5.127A5.127,5.127,0,0,1,71.771,16.843Z" transform="translate(275.995 748.088)" fill="#fde098"/>
        <path id="path4540" d="M71.771,16.843a5.127,5.127,0,1,1-5.127-5.127A5.127,5.127,0,0,1,71.771,16.843Z" transform="translate(162.066 788.088)" fill="#fde098"/>
        <path id="path4542" d="M71.771,16.843a5.127,5.127,0,1,1-5.127-5.127A5.127,5.127,0,0,1,71.771,16.843Z" transform="translate(139.566 785.945)" fill="#fde098"/>
        <path id="path4544" d="M71.771,16.843a5.127,5.127,0,1,1-5.127-5.127A5.127,5.127,0,0,1,71.771,16.843Z" transform="translate(117.78 788.445)" fill="#fde098"/>
        <path id="path4546" d="M71.771,16.843a5.127,5.127,0,1,1-5.127-5.127A5.127,5.127,0,0,1,71.771,16.843Z" transform="translate(99.923 778.088)" fill="#fde098"/>
        <path id="path4548" d="M71.771,16.843a5.127,5.127,0,1,1-5.127-5.127A5.127,5.127,0,0,1,71.771,16.843Z" transform="translate(89.566 765.588)" fill="#fde098"/>
        <path id="path4550" d="M71.771,16.843a5.127,5.127,0,1,1-5.127-5.127A5.127,5.127,0,0,1,71.771,16.843Z" transform="translate(198.494 787.202)" fill="#fde098"/>
        <path id="path4552" d="M71.771,16.843a5.127,5.127,0,1,1-5.127-5.127A5.127,5.127,0,0,1,71.771,16.843Z" transform="translate(253.851 782.916)" fill="#fde098"/>
        <path id="path4554" d="M71.771,16.843a5.127,5.127,0,1,1-5.127-5.127A5.127,5.127,0,0,1,71.771,16.843Z" transform="translate(270.994 772.559)" fill="#fde098"/>
        <path id="path4556" d="M71.771,16.843a5.127,5.127,0,1,1-5.127-5.127A5.127,5.127,0,0,1,71.771,16.843Z" transform="translate(287.423 761.13)" fill="#fde098"/>
      </g>
    </g>
  </g>
</svg>
