<svg xmlns="http://www.w3.org/2000/svg" xmlns:xlink="http://www.w3.org/1999/xlink" width="138" height="29" viewBox="0 0 138 29">
  <defs>
    <clipPath id="clip-foodscout_logo">
      <rect width="138" height="29"/>
    </clipPath>
  </defs>
  <g id="foodscout_logo" data-name="foodscout logo" clip-path="url(#clip-foodscout_logo)">
    <path id="Path_58" data-name="Path 58" d="M11.084,17.071H4.5V24H1.662V7.648H12.05V9.939H4.5V14.8h6.581Zm2.2.741a7.165,7.165,0,0,1,.708-3.218,5.167,5.167,0,0,1,1.988-2.2,5.6,5.6,0,0,1,2.942-.769,5.308,5.308,0,0,1,3.992,1.583,6.228,6.228,0,0,1,1.656,4.2l.011.64a7.229,7.229,0,0,1-.691,3.212,5.105,5.105,0,0,1-1.977,2.19,5.642,5.642,0,0,1-2.97.775,5.271,5.271,0,0,1-4.116-1.713,6.559,6.559,0,0,1-1.544-4.565Zm2.729.236a4.9,4.9,0,0,0,.775,2.937,2.519,2.519,0,0,0,2.156,1.061A2.492,2.492,0,0,0,21.1,20.968a5.408,5.408,0,0,0,.769-3.156,4.833,4.833,0,0,0-.792-2.92,2.669,2.669,0,0,0-4.273-.017A5.306,5.306,0,0,0,16.015,18.048Zm10.366-.236a7.165,7.165,0,0,1,.708-3.218,5.167,5.167,0,0,1,1.988-2.2,5.6,5.6,0,0,1,2.942-.769,5.308,5.308,0,0,1,3.992,1.583,6.228,6.228,0,0,1,1.656,4.2l.011.64a7.229,7.229,0,0,1-.691,3.212,5.105,5.105,0,0,1-1.977,2.19,5.642,5.642,0,0,1-2.97.775,5.271,5.271,0,0,1-4.116-1.713,6.559,6.559,0,0,1-1.544-4.565Zm2.729.236a4.9,4.9,0,0,0,.775,2.937,2.519,2.519,0,0,0,2.156,1.061,2.492,2.492,0,0,0,2.151-1.078,5.408,5.408,0,0,0,.769-3.156,4.833,4.833,0,0,0-.792-2.92,2.669,2.669,0,0,0-4.273-.017A5.306,5.306,0,0,0,29.109,18.048Zm10.366-.213a7.224,7.224,0,0,1,1.3-4.509,4.174,4.174,0,0,1,3.493-1.7,3.966,3.966,0,0,1,3.122,1.348V6.75h2.729V24H47.651l-.135-1.258a4.023,4.023,0,0,1-3.268,1.482,4.151,4.151,0,0,1-3.453-1.718A7.489,7.489,0,0,1,39.475,17.834Zm2.729.236a5.058,5.058,0,0,0,.713,2.892A2.314,2.314,0,0,0,44.944,22a2.577,2.577,0,0,0,2.448-1.494V15.319a2.538,2.538,0,0,0-2.426-1.46,2.331,2.331,0,0,0-2.044,1.05A5.633,5.633,0,0,0,42.2,18.07Zm25.269,1.718a1.974,1.974,0,0,0-.758-1.662,9.121,9.121,0,0,0-2.735-1.179,13.205,13.205,0,0,1-3.145-1.325A4.2,4.2,0,0,1,58.6,11.961,3.984,3.984,0,0,1,60.212,8.7,6.523,6.523,0,0,1,64.4,7.424a7.066,7.066,0,0,1,3.043.629,5,5,0,0,1,2.1,1.791,4.594,4.594,0,0,1,.764,2.577h-2.83a2.562,2.562,0,0,0-.8-2,3.314,3.314,0,0,0-2.3-.724,3.461,3.461,0,0,0-2.162.6,1.982,1.982,0,0,0-.769,1.662,1.793,1.793,0,0,0,.831,1.5,9.574,9.574,0,0,0,2.74,1.168,12.6,12.6,0,0,1,3.066,1.292,4.877,4.877,0,0,1,1.7,1.662,4.329,4.329,0,0,1,.539,2.2,3.891,3.891,0,0,1-1.567,3.251A6.8,6.8,0,0,1,64.5,24.225a7.988,7.988,0,0,1-3.262-.657,5.48,5.48,0,0,1-2.313-1.814,4.52,4.52,0,0,1-.825-2.7h2.841a2.645,2.645,0,0,0,.921,2.156,4.033,4.033,0,0,0,2.639.764,3.5,3.5,0,0,0,2.229-.6A1.939,1.939,0,0,0,67.473,19.789Zm10.063,2.257a2.467,2.467,0,0,0,1.7-.6,2.033,2.033,0,0,0,.719-1.471h2.572a4.008,4.008,0,0,1-.708,2.117,4.641,4.641,0,0,1-1.8,1.555,5.355,5.355,0,0,1-2.448.573,5.181,5.181,0,0,1-4.043-1.651,6.548,6.548,0,0,1-1.494-4.56v-.281a6.439,6.439,0,0,1,1.482-4.442,5.134,5.134,0,0,1,4.043-1.668,4.993,4.993,0,0,1,3.532,1.263,4.526,4.526,0,0,1,1.432,3.319H79.95a2.5,2.5,0,0,0-.713-1.718,2.294,2.294,0,0,0-1.7-.674,2.4,2.4,0,0,0-2.044.96,4.9,4.9,0,0,0-.73,2.914v.438a4.981,4.981,0,0,0,.713,2.948A2.4,2.4,0,0,0,77.535,22.046Zm6.536-4.234a7.165,7.165,0,0,1,.708-3.218,5.167,5.167,0,0,1,1.988-2.2,5.6,5.6,0,0,1,2.942-.769A5.308,5.308,0,0,1,93.7,13.208a6.228,6.228,0,0,1,1.656,4.2l.011.64a7.229,7.229,0,0,1-.691,3.212A5.105,5.105,0,0,1,92.7,23.45a5.642,5.642,0,0,1-2.97.775,5.271,5.271,0,0,1-4.116-1.713,6.559,6.559,0,0,1-1.544-4.565Zm2.729.236a4.9,4.9,0,0,0,.775,2.937,2.519,2.519,0,0,0,2.156,1.061,2.492,2.492,0,0,0,2.151-1.078,5.408,5.408,0,0,0,.769-3.156,4.833,4.833,0,0,0-.792-2.92,2.669,2.669,0,0,0-4.273-.017A5.306,5.306,0,0,0,86.8,18.048Zm18.238,4.762a4.232,4.232,0,0,1-3.414,1.415,3.772,3.772,0,0,1-2.993-1.157,4.921,4.921,0,0,1-1.016-3.347V11.849h2.729v7.839q0,2.313,1.92,2.313a2.7,2.7,0,0,0,2.684-1.426V11.849h2.729V24h-2.572ZM113.877,8.9v2.954h2.145V13.87h-2.145v6.783a1.494,1.494,0,0,0,.275,1.005,1.276,1.276,0,0,0,.983.309,4.2,4.2,0,0,0,.955-.112v2.111a6.721,6.721,0,0,1-1.8.258q-3.145,0-3.145-3.47V13.87h-2V11.849h2V8.9Z" transform="translate(10 -1)"/>
  </g>
</svg>
