<svg xmlns="http://www.w3.org/2000/svg" xmlns:xlink="http://www.w3.org/1999/xlink" width="55" height="55" viewBox="0 0 55 55">
  <defs>
    <clipPath id="clip-Home">
      <rect width="55" height="55"/>
    </clipPath>
  </defs>
  <g id="Home" clip-path="url(#clip-Home)">
    <rect width="55" height="55" fill="#fff"/>
    <path id="Path_57" data-name="Path 57" d="M12.337,13h-.984V9.168H7V13H6.021V4.6H7V8.283h4.348V4.6h.984Zm4.582.141a2.783,2.783,0,0,1-2.124-.841A3.114,3.114,0,0,1,14,10.07a3.244,3.244,0,0,1,.826-2.361,2.97,2.97,0,0,1,2.232-.85,2.691,2.691,0,0,1,2.095.826,3.276,3.276,0,0,1,.753,2.291,3.223,3.223,0,0,1-.812,2.3A2.844,2.844,0,0,1,16.919,13.141Zm.07-5.473a1.828,1.828,0,0,0-1.465.63,2.587,2.587,0,0,0-.539,1.737,2.447,2.447,0,0,0,.545,1.682,1.852,1.852,0,0,0,1.459.615,1.757,1.757,0,0,0,1.433-.6,2.619,2.619,0,0,0,.5-1.717,2.664,2.664,0,0,0-.5-1.734A1.749,1.749,0,0,0,16.989,7.668ZM29.962,13H29V9.555a2.6,2.6,0,0,0-.308-1.441,1.167,1.167,0,0,0-1.034-.445,1.281,1.281,0,0,0-1.046.563,2.152,2.152,0,0,0-.431,1.348V13h-.961V9.438q0-1.77-1.365-1.77a1.265,1.265,0,0,0-1.043.53,2.192,2.192,0,0,0-.41,1.38V13h-.961V7H22.4v.949h.023a2.038,2.038,0,0,1,1.863-1.09,1.733,1.733,0,0,1,1.7,1.242,2.141,2.141,0,0,1,1.992-1.242q1.98,0,1.98,2.443ZM36.6,10.24H32.364a2.244,2.244,0,0,0,.539,1.547,1.858,1.858,0,0,0,1.418.545,2.948,2.948,0,0,0,1.863-.668v.9a3.482,3.482,0,0,1-2.092.574,2.536,2.536,0,0,1-2-.817,3.346,3.346,0,0,1-.727-2.3,3.281,3.281,0,0,1,.794-2.282,2.546,2.546,0,0,1,1.972-.882,2.256,2.256,0,0,1,1.822.762A3.176,3.176,0,0,1,36.6,9.736Zm-.984-.814a1.955,1.955,0,0,0-.4-1.295,1.368,1.368,0,0,0-1.1-.463,1.552,1.552,0,0,0-1.154.486,2.207,2.207,0,0,0-.586,1.271Z" transform="translate(7 31)" fill="#636363"/>
    <g id="fastfood-24px_1_" data-name="fastfood-24px (1)" transform="translate(17 7)">
      <path id="Path_39" data-name="Path 39" d="M0,0H24V24H0Z" fill="none"/>
      <path id="Path_40" data-name="Path 40" d="M1,21.98a1.007,1.007,0,0,0,1.01,1.01H15a1.007,1.007,0,0,0,1.01-1.01V21H1ZM8.5,8.99C4.75,8.99,1,11,1,15H16C16,11,12.25,8.99,8.5,8.99ZM3.62,13c1.11-1.55,3.47-2.01,4.88-2.01s3.77.46,4.88,2.01ZM1,17H16v2H1ZM18,5V1H16V5H11l.23,2h9.56l-1.4,14H18v2h1.72a1.661,1.661,0,0,0,1.63-1.47L23,5Z" fill="#636363"/>
    </g>
  </g>
</svg>
