<svg xmlns="http://www.w3.org/2000/svg" xmlns:xlink="http://www.w3.org/1999/xlink" width="55" height="55" viewBox="0 0 55 55">
  <defs>
    <clipPath id="clip-Saved_Filled">
      <rect width="55" height="55"/>
    </clipPath>
  </defs>
  <g id="Saved_Filled" data-name="Saved Filled" clip-path="url(#clip-Saved_Filled)">
    <rect width="55" height="55" fill="#fff"/>
    <path id="Path_47" data-name="Path 47" d="M8.424,12.66V11.5a2.253,2.253,0,0,0,.478.316,3.869,3.869,0,0,0,.586.237,4.664,4.664,0,0,0,.618.149,3.447,3.447,0,0,0,.574.053,2.249,2.249,0,0,0,1.356-.337,1.264,1.264,0,0,0,.3-1.562,1.683,1.683,0,0,0-.413-.46,4.1,4.1,0,0,0-.624-.4q-.36-.19-.776-.4-.439-.223-.82-.451a3.555,3.555,0,0,1-.662-.5A2.1,2.1,0,0,1,8.6,7.519,1.932,1.932,0,0,1,8.436,6.7a1.922,1.922,0,0,1,.252-1A2.161,2.161,0,0,1,9.35,5a3,3,0,0,1,.935-.41,4.279,4.279,0,0,1,1.069-.135,4.1,4.1,0,0,1,1.811.3V5.863a3.282,3.282,0,0,0-1.91-.516,3.142,3.142,0,0,0-.645.067,1.821,1.821,0,0,0-.574.22,1.272,1.272,0,0,0-.41.393,1.042,1.042,0,0,0-.158.586,1.206,1.206,0,0,0,.12.557,1.364,1.364,0,0,0,.354.428,3.531,3.531,0,0,0,.571.375q.337.182.776.4t.855.469a3.91,3.91,0,0,1,.709.545,2.422,2.422,0,0,1,.483.662,1.861,1.861,0,0,1,.179.832,2.11,2.11,0,0,1-.243,1.052,2,2,0,0,1-.656.7,2.866,2.866,0,0,1-.952.39,5.215,5.215,0,0,1-1.137.12,4.632,4.632,0,0,1-.492-.032q-.293-.032-.6-.094a4.877,4.877,0,0,1-.577-.152A1.8,1.8,0,0,1,8.424,12.66ZM19.357,13H18.4v-.937h-.023a2.012,2.012,0,0,1-1.846,1.078,1.973,1.973,0,0,1-1.4-.475,1.644,1.644,0,0,1-.507-1.26q0-1.682,1.98-1.957L18.4,9.2q0-1.529-1.236-1.529a2.954,2.954,0,0,0-1.957.738V7.422a3.718,3.718,0,0,1,2.039-.562q2.115,0,2.115,2.238ZM18.4,9.965l-1.447.2a2.35,2.35,0,0,0-1.008.331.955.955,0,0,0-.34.841.916.916,0,0,0,.313.718,1.211,1.211,0,0,0,.835.278,1.542,1.542,0,0,0,1.181-.5,1.79,1.79,0,0,0,.466-1.269ZM25.885,7l-2.391,6h-.943L20.277,7h1.055l1.523,4.359a3.913,3.913,0,0,1,.211.838h.023a3.962,3.962,0,0,1,.188-.814L24.871,7Zm5.854,3.24H27.5a2.244,2.244,0,0,0,.539,1.547,1.858,1.858,0,0,0,1.418.545,2.948,2.948,0,0,0,1.863-.668v.9a3.482,3.482,0,0,1-2.092.574,2.536,2.536,0,0,1-2-.817,3.346,3.346,0,0,1-.727-2.3A3.281,3.281,0,0,1,27.3,7.741a2.546,2.546,0,0,1,1.972-.882,2.256,2.256,0,0,1,1.822.762,3.176,3.176,0,0,1,.645,2.115Zm-.984-.814a1.955,1.955,0,0,0-.4-1.295,1.368,1.368,0,0,0-1.1-.463,1.552,1.552,0,0,0-1.154.486,2.207,2.207,0,0,0-.586,1.271ZM38.313,13h-.961V11.98h-.023a2.218,2.218,0,0,1-2.062,1.16,2.241,2.241,0,0,1-1.808-.806,3.305,3.305,0,0,1-.677-2.194,3.6,3.6,0,0,1,.75-2.385,2.474,2.474,0,0,1,2-.9,1.923,1.923,0,0,1,1.8.973h.023V4.117h.961Zm-.961-2.713V9.4a1.717,1.717,0,0,0-.48-1.23,1.612,1.612,0,0,0-1.219-.5,1.659,1.659,0,0,0-1.383.645,2.824,2.824,0,0,0-.5,1.781,2.54,2.54,0,0,0,.483,1.638,1.58,1.58,0,0,0,1.3.6,1.641,1.641,0,0,0,1.3-.58A2.161,2.161,0,0,0,37.352,10.287Z" transform="translate(4 31)"/>
    <g id="bookmark-24px" transform="translate(16 7)">
      <path id="Path_48" data-name="Path 48" d="M17,3H7A2,2,0,0,0,5.01,5L5,21l7-3,7,3V5A2.006,2.006,0,0,0,17,3Z"/>
      <path id="Path_49" data-name="Path 49" d="M0,0H24V24H0Z" fill="none"/>
    </g>
  </g>
</svg>
