<svg xmlns="http://www.w3.org/2000/svg" xmlns:xlink="http://www.w3.org/1999/xlink" width="55" height="55" viewBox="0 0 55 55">
  <defs>
    <clipPath id="clip-Home_Filled">
      <rect width="55" height="55"/>
    </clipPath>
  </defs>
  <g id="Home_Filled" data-name="Home Filled" clip-path="url(#clip-Home_Filled)">
    <path id="Path_54" data-name="Path 54" d="M12.337,13h-.984V9.168H7V13H6.021V4.6H7V8.283h4.348V4.6h.984Zm4.582.141a2.783,2.783,0,0,1-2.124-.841A3.114,3.114,0,0,1,14,10.07a3.244,3.244,0,0,1,.826-2.361,2.97,2.97,0,0,1,2.232-.85,2.691,2.691,0,0,1,2.095.826,3.276,3.276,0,0,1,.753,2.291,3.223,3.223,0,0,1-.812,2.3A2.844,2.844,0,0,1,16.919,13.141Zm.07-5.473a1.828,1.828,0,0,0-1.465.63,2.587,2.587,0,0,0-.539,1.737,2.447,2.447,0,0,0,.545,1.682,1.852,1.852,0,0,0,1.459.615,1.757,1.757,0,0,0,1.433-.6,2.619,2.619,0,0,0,.5-1.717,2.664,2.664,0,0,0-.5-1.734A1.749,1.749,0,0,0,16.989,7.668ZM29.962,13H29V9.555a2.6,2.6,0,0,0-.308-1.441,1.167,1.167,0,0,0-1.034-.445,1.281,1.281,0,0,0-1.046.563,2.152,2.152,0,0,0-.431,1.348V13h-.961V9.438q0-1.77-1.365-1.77a1.265,1.265,0,0,0-1.043.53,2.192,2.192,0,0,0-.41,1.38V13h-.961V7H22.4v.949h.023a2.038,2.038,0,0,1,1.863-1.09,1.733,1.733,0,0,1,1.7,1.242,2.141,2.141,0,0,1,1.992-1.242q1.98,0,1.98,2.443ZM36.6,10.24H32.364a2.244,2.244,0,0,0,.539,1.547,1.858,1.858,0,0,0,1.418.545,2.948,2.948,0,0,0,1.863-.668v.9a3.482,3.482,0,0,1-2.092.574,2.536,2.536,0,0,1-2-.817,3.346,3.346,0,0,1-.727-2.3,3.281,3.281,0,0,1,.794-2.282,2.546,2.546,0,0,1,1.972-.882,2.256,2.256,0,0,1,1.822.762A3.176,3.176,0,0,1,36.6,9.736Zm-.984-.814a1.955,1.955,0,0,0-.4-1.295,1.368,1.368,0,0,0-1.1-.463,1.552,1.552,0,0,0-1.154.486,2.207,2.207,0,0,0-.586,1.271Z" transform="translate(7 31)"/>
    <g id="fastfood-24px_2_" data-name="fastfood-24px (2)" transform="translate(17 7)">
      <path id="Path_50" data-name="Path 50" d="M18.06,22.99h1.66a1.652,1.652,0,0,0,1.63-1.46L23,5.05H18V1H16.03V5.05H11.06l.3,2.34a10.251,10.251,0,0,1,4.27,2.26,6.89,6.89,0,0,1,2.43,5.29v8.05ZM1,21.99V21H16.03v.99a1,1,0,0,1-1.01,1H2.01A1,1,0,0,1,1,21.99Zm15.03-7c0-8-15.03-8-15.03,0ZM1.02,17h15v2h-15Z"/>
      <path id="Path_51" data-name="Path 51" d="M0,0H24V24H0Z" fill="none"/>
    </g>
  </g>
</svg>
